<svg xmlns="http://www.w3.org/2000/svg" width="520.615" height="187.075" viewBox="0 0 520.615 187.075">
<rect width="100%" height="100%" fill="#ee6c4d"/>
  <g id="logo-group" transform="translate(-251.693 -290.462)">
    <g id="logo-center">
      <g id="title">
        <path id="path3148" d="M1062.99-24.425a54.938,54.938,0,0,0,11.287,16.839A53.87,53.87,0,0,0,1091.117,3.7a52.162,52.162,0,0,0,20.539,4.071A52.162,52.162,0,0,0,1132.2,3.7a53.87,53.87,0,0,0,16.839-11.287,54.936,54.936,0,0,0,11.287-16.839,51.518,51.518,0,0,0,4.071-20.539v-89.744l-27.756-9.252V-91.41a47.3,47.3,0,0,0-4.441-2.035,51.519,51.519,0,0,0-20.539-4.071,52.163,52.163,0,0,0-20.539,4.071,53.871,53.871,0,0,0-16.839,11.287,54.936,54.936,0,0,0-11.287,16.839,54.712,54.712,0,0,0-4.071,20.354,54.928,54.928,0,0,0,4.071,20.539Zm48.666-45.52a25.114,25.114,0,0,1,24.98,24.98,24.994,24.994,0,0,1-24.98,24.98,24.994,24.994,0,0,1-24.98-24.98A25.114,25.114,0,0,1,1111.656-69.945Z" transform="translate(-807.227 434.423)" fill="#75b6c6" stroke="#75b6c6" stroke-miterlimit="2" stroke-width="0"/>
        <path id="path3150" d="M1222.176,7.217a51.142,51.142,0,0,0,20.91-4.441,52.2,52.2,0,0,0,17.024-11.843l-19.614-18.5a24.645,24.645,0,0,1-18.319,7.957,25.438,25.438,0,0,1-21.465-11.843h73.461V-44.965A51.784,51.784,0,0,0,1259-81.788a51.961,51.961,0,0,0-36.823-15.358,52.39,52.39,0,0,0-37.008,15.358A51.784,51.784,0,0,0,1170-44.965a51.784,51.784,0,0,0,15.173,36.823,52.39,52.39,0,0,0,37.008,15.358Zm-21.465-65.5a25.183,25.183,0,0,1,21.465-12.028,25.662,25.662,0,0,1,21.465,12.028Z" transform="translate(-807.227 434.423)" fill="#75b6c6" stroke="#75b6c6" stroke-miterlimit="2" stroke-width="0"/>
        <path id="path3152" d="M1305.491,6.476h23.13l42-103.067h-30.162l-23.315,59.953-23.13-59.953h-30.347Z" transform="translate(-807.227 434.423)" fill="#75b6c6" stroke="#75b6c6" stroke-miterlimit="2" stroke-width="0"/>
        <path id="path3154" d="M1373.868,6.476h27.941V-100.292l-27.941,9.252Z" transform="translate(-807.227 434.423)" fill="#75b6c6" stroke="#75b6c6" stroke-miterlimit="2" stroke-width="0"/>
        <path id="path3156" d="M1477.146-70.685V-96.591h-29.421v-33.122l-27.756,9.252v71.8a56.639,56.639,0,0,0,4.441,22.2,55.011,55.011,0,0,0,12.213,18.134,55.526,55.526,0,0,0,18.134,12.4,57.548,57.548,0,0,0,22.39,4.441V-19.244a29.377,29.377,0,0,1-29.421-29.421v-22.02Z" transform="translate(-807.227 434.423)" fill="#75b6c6" stroke="#75b6c6" stroke-miterlimit="2" stroke-width="0"/>
        <path id="path3158" d="M1493.861,43.114h29.421l56.252-139.705h-29.606l-23.315,58.473-24.8-58.473h-30.532l41.264,93.26Z" transform="translate(-807.227 434.423)" fill="#75b6c6" stroke="#75b6c6" stroke-miterlimit="2" stroke-width="0"/>
      </g>
    </g>
  </g>
</svg>
